<svg width="73" height="73" viewBox="0 0 73 73" fill="none" xmlns="http://www.w3.org/2000/svg">
<path d="M69.8167 57.6833C69.8167 58.8833 69.55 60.1167 68.9833 61.3167C68.4167 62.5167 67.6833 63.65 66.7167 64.7167C65.0833 66.5167 63.2833 67.8167 61.25 68.65C59.25 69.4833 57.0833 69.9167 54.75 69.9167C51.35 69.9167 47.7167 69.1167 43.8833 67.4833C40.05 65.85 36.2167 63.65 32.4167 60.8833C28.5833 58.0833 24.95 54.9833 21.4833 51.55C18.05 48.0833 14.95 44.45 12.1833 40.65C9.45 36.85 7.25 33.05 5.65 29.2833C4.05 25.4833 3.25 21.85 3.25 18.3833C3.25 16.1167 3.65 13.95 4.45 11.95C5.25 9.91667 6.51667 8.05 8.28333 6.38333C10.4167 4.28333 12.75 3.25 15.2167 3.25C16.15 3.25 17.0833 3.45 17.9167 3.85C18.7833 4.25 19.55 4.85 20.15 5.71667L27.8833 16.6167C28.4833 17.45 28.9167 18.2167 29.2167 18.95C29.5167 19.65 29.6833 20.35 29.6833 20.9833C29.6833 21.7833 29.45 22.5833 28.9833 23.35C28.55 24.1167 27.9167 24.9167 27.1167 25.7167L24.5833 28.35C24.2167 28.7167 24.05 29.15 24.05 29.6833C24.05 29.95 24.0833 30.1833 24.15 30.45C24.25 30.7167 24.35 30.9167 24.4167 31.1167C25.0167 32.2167 26.05 33.65 27.5167 35.3833C29.0167 37.1167 30.6167 38.8833 32.35 40.65C34.15 42.4167 35.8833 44.05 37.65 45.55C39.3833 47.0167 40.8167 48.0167 41.95 48.6167C42.1167 48.6833 42.3167 48.7833 42.55 48.8833C42.8167 48.9833 43.0833 49.0167 43.3833 49.0167C43.95 49.0167 44.3833 48.8167 44.75 48.45L47.2833 45.95C48.1167 45.1167 48.9167 44.4833 49.6833 44.0833C50.45 43.6167 51.2167 43.3833 52.05 43.3833C52.6833 43.3833 53.35 43.5167 54.0833 43.8167C54.8167 44.1167 55.5833 44.55 56.4167 45.1167L67.45 52.95C68.3167 53.55 68.9167 54.25 69.2833 55.0833C69.6167 55.9167 69.8167 56.75 69.8167 57.6833Z" stroke="#FF16CC" stroke-width="5" stroke-miterlimit="10"/>
<path d="M58.6667 26.9997C58.6667 24.9997 57.1 21.933 54.7667 19.433C52.6333 17.133 49.8 15.333 47 15.333" stroke="#FF16CC" stroke-width="5" stroke-linecap="round" stroke-linejoin="round"/>
<path d="M70.3333 26.9993C70.3333 14.0993 59.9 3.66602 47 3.66602" stroke="#FF16CC" stroke-width="5" stroke-linecap="round" stroke-linejoin="round"/>
</svg>
